<svg width="32" height="32" viewBox="0 0 32 32" fill="none" xmlns="http://www.w3.org/2000/svg">
<path d="M31.6575 4.34169L32 3C31.917 3.06413 31.839 3.12519 31.7648 3.18333C30.2984 4.33218 30.2863 4.34169 21.3607 4.34169L0 4.34169C1.71905 7.99724 5.64258 8.74901 11.1234 9.79917C12.3707 10.0382 13.6986 10.2926 15.0996 10.6002C13.4644 10.5706 9.92132 10.462 2.39763 10.106C3.82866 13.2561 6.30686 13.9174 10.6296 15.071C11.5663 15.321 12.5897 15.5941 13.7078 15.9206C11.9799 15.8682 9.16817 15.7664 4.59934 15.5722C5.77334 18.1555 6.57001 18.7277 10.8568 20.2433L12.8679 19.1336L12.5749 20.0554C12.2032 21.0811 11.9114 22.0146 11.6429 22.8739C10.8511 25.4073 10.261 27.2955 8.41592 29H12.526C13.5 29 14.4661 27.9379 15 26.5L17 20C17.5382 18.2111 18.1657 18 19.5 18C24 18 25.5 17.5 27 13.5C25 14.25 23 14.25 18.75 14.25L19.75 11C20 10 20.75 9.5 22.25 9.5H24.5C28.3165 9.32608 30.6031 8.331 31.6575 4.34169Z" fill="url(#paint0_linear_301_12)"/>
<defs>
<linearGradient id="paint0_linear_301_12" x1="16" y1="3" x2="16" y2="29" gradientUnits="userSpaceOnUse">
<stop offset="0.155048" stop-color="#00A2E4"/>
<stop offset="1" stop-color="#FFCC00"/>
</linearGradient>
</defs>
</svg>
